<svg width="73" height="73" viewBox="0 0 73 73" fill="none" xmlns="http://www.w3.org/2000/svg">
<path d="M20.0891 33.4854L24.7732 38.0926C25.1401 38.4533 25.6184 38.6443 26.1098 38.6443C26.3306 38.6443 26.554 38.6057 26.7713 38.5267C27.4721 38.2716 27.9516 37.6521 28.0227 36.9099L28.6495 30.37C28.6533 30.3285 28.6752 30.2905 28.7089 30.2659C33.0131 27.1207 35.5828 22.0648 35.5828 16.7412C35.5828 12.2255 33.812 7.99218 30.5963 4.8211C27.3813 1.65059 23.1294 -0.0609142 18.6037 0.00196275C14.2414 0.062701 10.1269 1.80828 7.01782 4.91734C3.90876 8.0264 2.16318 12.1411 2.10244 16.5032C2.03956 21.0218 3.75107 25.2808 6.92158 28.4958C10.0927 31.7113 14.3261 33.4822 18.8417 33.4822C19.2201 33.4822 19.6029 33.4693 19.9793 33.4441C20.0204 33.4415 20.0594 33.4562 20.0891 33.4854ZM18.8418 31.3432C14.903 31.3432 11.2105 29.7985 8.44432 26.9937C5.67887 24.1895 4.18608 20.4743 4.24097 16.5326C4.29373 12.7303 5.81717 9.14222 8.53001 6.42924C11.243 3.71626 14.8311 2.1931 18.6334 2.14006C22.5722 2.08702 26.2903 3.57796 29.0945 6.34355C31.8993 9.10957 33.444 12.8021 33.444 16.7409C33.444 21.3845 31.2021 25.7949 27.4468 28.539C26.9203 28.9239 26.5825 29.5168 26.5204 30.1658L25.9382 36.2389L21.5885 31.9607C21.16 31.5394 20.5837 31.3048 19.9879 31.3048C19.9374 31.3048 19.8866 31.3066 19.8359 31.31C19.5072 31.3319 19.1726 31.3432 18.8418 31.3432Z" fill="black"/>
<path d="M70.7397 55.0426L65.4743 25.5628C65.0615 23.2553 63.061 21.5806 60.7174 21.5806H57.3785C56.8208 20.6189 56.0584 19.791 55.1503 19.1564L56.4271 15.6502C56.7696 14.7091 56.2821 13.6644 55.3404 13.3215L53.5161 12.6574L55.5249 7.13801C55.8676 6.19671 55.3833 5.15717 54.4416 4.81441L50.562 3.40246C49.6204 3.05985 48.5812 3.54433 48.2386 4.48591L46.2296 10.0051L44.4047 9.34084C43.4645 8.99866 42.4211 9.48499 42.0772 10.4261L34.03 32.5346C33.6878 33.476 34.1747 34.5206 35.1155 34.8632L35.3604 34.9523L34.4246 37.5231C34.2528 37.9955 34.275 38.5063 34.4873 38.9619C34.6998 39.4174 35.0769 39.763 35.5491 39.9348L42.4593 42.4499C42.6695 42.5263 42.887 42.5644 43.1041 42.5644C43.375 42.5644 43.6451 42.5051 43.8981 42.3872C44.3536 42.1747 44.6991 41.7976 44.871 41.3254L45.8072 38.7533L46.051 38.842C46.254 38.9161 46.4643 38.953 46.6742 38.953C47.3989 38.953 48.1063 38.5088 48.3794 37.7572L50.143 32.9146C53.2299 33.1895 56.07 31.5796 57.4852 28.9714C57.7415 29.1132 57.9156 29.386 57.9156 29.6992V37.9302C57.9156 38.5207 58.3943 38.9995 58.985 38.9995C59.5757 38.9995 60.0543 38.5207 60.0543 37.9302V29.699C60.0543 28.4668 59.2996 27.4079 58.2285 26.9589C58.3384 26.4459 58.3977 25.9146 58.3977 25.3692C58.3977 24.8024 58.3331 24.2508 58.2146 23.7193H60.7173C62.0236 23.7193 63.1388 24.6529 63.369 25.9391L68.6344 55.4185C69.0534 57.7657 68.4161 60.1604 66.8852 61.9888C65.3544 63.8172 63.1089 64.8661 60.7246 64.8661C59.674 64.8661 34.2066 64.8658 33.1569 64.8658V56.2121C33.5967 56.2121 51.1291 56.2117 55.1567 56.2117C57.8573 56.2117 60.0545 54.0147 60.0545 51.3141V42.9206C60.0545 42.33 59.5758 41.8512 58.9851 41.8512C58.3944 41.8512 57.9158 42.33 57.9158 42.9206V51.3141C57.9158 52.8354 56.6781 54.073 55.1567 54.073H53.1743V50.2669C53.1743 49.2841 52.3749 48.4847 51.3921 48.4847H28.295C27.3122 48.4847 26.5128 49.2841 26.5128 50.2669V54.43C26.5128 55.4128 27.3122 56.2123 28.295 56.2123H31.0184V64.8659H21.4403C20.4575 64.8659 19.6581 65.6653 19.6581 66.6481V71.2178C19.6581 72.2006 20.4575 73 21.4403 73H29.5924C30.1831 73 30.6617 72.5212 30.6617 71.9307C30.6617 71.3401 30.1831 70.8613 29.5924 70.8613H21.7968V67.0043C25.3358 67.0043 54.7196 67.0046 57.8904 67.0046V70.8613H34.5826C33.9919 70.8613 33.5133 71.3401 33.5133 71.9307C33.5133 72.5212 33.9919 73 34.5826 73H58.247C59.2298 73 60.0292 72.2006 60.0292 71.2178V67.0046H60.7247C63.7437 67.0046 66.5868 65.6768 68.5252 63.3616C70.4632 61.0467 71.2704 58.0145 70.7397 55.0426ZM50.1367 5.5236L53.4038 6.71256L51.5062 11.9258L48.2393 10.7365L50.1367 5.5236ZM42.9494 40.3522L36.5222 38.0129L37.3701 35.6833L43.7976 38.0219L42.9494 40.3522ZM46.4804 36.7221C44.6085 36.041 37.4227 33.4266 36.1497 32.9635L43.9765 11.4608C44.9336 11.8093 54.3071 15.2213 54.3071 15.2213L53.2274 18.1864C52.4707 17.9322 51.662 17.7923 50.8207 17.7923C46.6427 17.7923 43.2436 21.1914 43.2436 25.3693C43.2436 28.5686 45.2379 31.3093 48.0477 32.4185L46.4804 36.7221ZM50.8208 30.8077C47.8221 30.8077 45.3825 28.368 45.3825 25.3693C45.3825 22.3706 47.822 19.931 50.8208 19.931C53.8197 19.931 56.2593 22.3706 56.2593 25.3693C56.2593 28.368 53.8195 30.8077 50.8208 30.8077ZM28.6515 50.6231H51.0357V54.0727C50.9129 54.0727 32.1706 54.0732 28.6515 54.0732V50.6231Z" fill="black"/>
<path d="M50.8208 22.1307C49.0351 22.1307 47.5823 23.5834 47.5823 25.3692C47.5823 27.155 49.035 28.6077 50.8208 28.6077C52.6066 28.6077 54.0595 27.155 54.0595 25.3692C54.0595 23.5834 52.6066 22.1307 50.8208 22.1307ZM50.8208 26.4692C50.2143 26.4692 49.721 25.9759 49.721 25.3693C49.721 24.7628 50.2143 24.2695 50.8208 24.2695C51.4273 24.2695 51.9208 24.7628 51.9208 25.3693C51.9208 25.9759 51.4273 26.4692 50.8208 26.4692Z" fill="black"/>
<path d="M25.489 15.7031C27.3304 15.7031 28.8285 14.205 28.8285 12.3636C28.8285 10.5222 27.3304 9.02414 25.489 9.02414C23.6476 9.02414 22.1495 10.5222 22.1495 12.3636C22.1495 14.205 23.6476 15.7031 25.489 15.7031ZM25.489 11.1628C26.1511 11.1628 26.6898 11.7015 26.6898 12.3636C26.6898 13.0257 26.1511 13.5644 25.489 13.5644C24.8269 13.5644 24.2882 13.0257 24.2882 12.3636C24.2882 11.7015 24.8269 11.1628 25.489 11.1628Z" fill="black"/>
<path d="M11.18 13.252C9.33858 13.252 7.84052 14.7501 7.84052 16.5915C7.84052 18.4329 9.33858 19.931 11.18 19.931C13.0214 19.931 14.5196 18.4329 14.5196 16.5915C14.5196 14.7501 13.0214 13.252 11.18 13.252ZM11.18 17.7923C10.5178 17.7923 9.97919 17.2536 9.97919 16.5915C9.97919 15.9294 10.5178 15.3907 11.18 15.3907C11.8423 15.3907 12.3809 15.9294 12.3809 16.5915C12.3809 17.2536 11.8423 17.7923 11.18 17.7923Z" fill="black"/>
<path d="M27.6406 20.2653L26.0116 21.8942C25.5939 22.3118 25.5939 22.9887 26.0115 23.4063C26.2204 23.6152 26.494 23.7196 26.7677 23.7196C27.0413 23.7196 27.3151 23.6152 27.5238 23.4063L29.1528 21.7775C29.5705 21.3599 29.5705 20.683 29.1529 20.2653C28.7353 19.8477 28.0581 19.8477 27.6406 20.2653Z" fill="black"/>
<path d="M17.0271 7.2588C16.6096 6.84105 15.9325 6.84119 15.5149 7.2588L13.8861 8.88762C13.4685 9.30523 13.4685 9.98233 13.8862 10.3998C14.0949 10.6087 14.3687 10.713 14.6423 10.713C14.9159 10.713 15.1897 10.6087 15.3985 10.3998L17.0274 8.77099C17.4448 8.35338 17.4448 7.67641 17.0271 7.2588Z" fill="black"/>
<path d="M20.4123 16.1782L18.7835 14.5494C18.3659 14.1318 17.6888 14.1318 17.2713 14.5494C16.8536 14.967 16.8536 15.6439 17.2712 16.0616L18.9 17.6904C19.1089 17.8992 19.3825 18.0036 19.6562 18.0036C19.9299 18.0036 20.2036 17.8992 20.4123 17.6904C20.83 17.2729 20.83 16.5958 20.4123 16.1782Z" fill="black"/>
<path d="M17.4394 23.0781L15.8106 24.7069C15.393 25.1245 15.393 25.8016 15.8108 26.2191C16.0195 26.428 16.2933 26.5323 16.5669 26.5323C16.8405 26.5323 17.1142 26.428 17.3231 26.2191L18.9519 24.5903C19.3695 24.1727 19.3695 23.4956 18.9518 23.0781C18.5342 22.6604 17.8571 22.6605 17.4394 23.0781Z" fill="black"/>
</svg>
