<svg width="96" height="96" viewBox="0 0 96 96" fill="none" xmlns="http://www.w3.org/2000/svg">
<path d="M46.1406 51.1982C39.4429 37.6168 22.1406 13.1331 6.51269 23.8494C-9.11522 34.5657 22.6232 62.5116 28.7628 64.7441C34.9023 66.9767 38.1841 60.9268 31.629 54.547C23.1814 46.3255 12.6522 79.1052 24.3732 84.6866C33.7499 89.1517 48.2977 65.3023 48.9313 60.6866C49.5649 56.0709 46.1406 51.1982 46.1406 51.1982Z" stroke="black" stroke-width="3"/>
<path d="M49.7526 48.9657C56.4503 35.3843 73.7526 10.9006 89.3805 21.6169C105.008 32.3332 73.2699 60.2791 67.1304 62.5116C60.9909 64.7442 57.7091 58.6943 64.2642 52.3145C72.7118 44.093 83.241 76.8727 71.52 82.4541C62.1433 86.9192 47.5955 63.0698 46.9619 58.4541C46.3283 53.8384 49.7526 48.9657 49.7526 48.9657Z" stroke="black" stroke-width="3"/>
</svg>
