<svg width="53" height="58" viewBox="0 0 53 58" fill="none" xmlns="http://www.w3.org/2000/svg">
<path d="M26.5 6.44444V0L42.1922 15.3333C42.449 15.5841 42.4511 15.9958 42.1969 16.2492L39.8781 18.5612C39.628 18.8106 39.2232 18.8131 38.9699 18.5669L26.5 6.44444Z" fill="#313C48"/>
<path d="M26.5 6.44444V0L10.8078 15.3333C10.551 15.5841 10.5489 15.9958 10.8031 16.2492L13.1219 18.5612C13.372 18.8106 13.7768 18.8131 14.0301 18.5669L26.5 6.44444Z" fill="#535D69"/>
<path d="M26.8232 31.2556L19.2198 23.9777C18.9586 23.7277 18.9543 23.3125 19.2104 23.0571L21.2099 21.0635C21.4566 20.8175 21.8545 20.8111 22.109 21.049L26.8232 25.4556V31.2556Z" fill="#DDD0A4"/>
<path d="M26.8232 31.2556L34.4265 23.9777C34.6878 23.7277 34.6921 23.3125 34.436 23.0571L32.4365 21.0635C32.1897 20.8175 31.7919 20.8111 31.5373 21.049L26.8232 25.4556V31.2556Z" fill="#A89060"/>
<path fill-rule="evenodd" clip-rule="evenodd" d="M26.2782 12.2444L23.079 15.4342C22.8266 15.6859 22.8266 16.0939 23.079 16.3456L26.2782 19.5354V12.2444Z" fill="#DDD0A4"/>
<path fill-rule="evenodd" clip-rule="evenodd" d="M26.278 12.2444L29.4773 15.4342C29.7297 15.6859 29.7297 16.0939 29.4773 16.3456L26.278 19.5354V12.2444Z" fill="#A89060"/>
<path d="M26.2163 34.8C20.7227 34.8 15.8472 37.4552 12.7945 41.5564C16.6387 38.7401 21.0922 37.078 26.2163 37.078C30.7999 37.078 35.3578 38.408 38.96 40.7045C35.8893 37.0912 31.3194 34.8 26.2163 34.8Z" fill="#313C48"/>
<path fill-rule="evenodd" clip-rule="evenodd" d="M12.7945 41.5564C15.8472 37.4552 20.7227 34.8 26.2163 34.8V37.078C21.0922 37.078 16.6387 38.7401 12.7945 41.5564Z" fill="#535D69"/>
<path d="M1.95038 49.373C1.92766 49.7078 1.88979 49.9784 1.83677 50.1849C1.78375 50.3888 1.6979 50.5612 1.57924 50.7022V50.7324H3.96515V46.9261H2.10565L1.95038 49.373ZM0.992234 51.5556V52.6317H0.102249V50.7324H0.492327C0.676638 50.6166 0.809183 50.4479 0.889976 50.2264C0.970769 50.0023 1.02253 49.6978 1.04525 49.3126L1.24219 46.1067H4.93845V50.7324H5.62014V52.6317H4.73394V51.5556H0.992234ZM9.858 50.7324V51.5556H6.32076V46.1067H9.858V46.93H7.29784V48.4026H9.71787V49.1767H7.29784V50.7324H9.858ZM15.1524 51.5556H14.1753V46.9261H12.437L12.2893 49.4448C12.2464 50.1723 12.1038 50.7136 11.8614 51.0684C11.619 51.4209 11.2491 51.5971 10.7518 51.5971C10.6103 51.5971 10.4917 51.582 10.3958 51.5518V50.6984C10.4715 50.7161 10.5498 50.7248 10.6306 50.7248C10.8805 50.7248 11.0623 50.6191 11.1759 50.4077C11.2895 50.1937 11.3589 49.8539 11.3842 49.3881L11.5622 46.1067H15.1524V51.5556ZM18.5987 46.0161C19.3941 46.0161 20.024 46.2691 20.4885 46.7751C20.9556 47.2811 21.1891 47.9671 21.1891 48.8331C21.1891 49.699 20.9556 50.385 20.4885 50.891C20.024 51.3945 19.3941 51.6462 18.5987 51.6462C17.8009 51.6462 17.1684 51.3945 16.7013 50.891C16.2368 50.385 16.0045 49.699 16.0045 48.8331C16.0045 47.9671 16.2368 47.2811 16.7013 46.7751C17.1684 46.2691 17.8009 46.0161 18.5987 46.0161ZM19.7614 47.3868C19.4736 47.0269 19.086 46.8469 18.5987 46.8469C18.1115 46.8469 17.7239 47.0256 17.4361 47.3831C17.1482 47.7405 17.0043 48.2239 17.0043 48.8331C17.0043 49.4397 17.1482 49.9218 17.4361 50.2793C17.7239 50.6367 18.1115 50.8155 18.5987 50.8155C19.086 50.8155 19.4736 50.6367 19.7614 50.2793C20.0492 49.9218 20.1931 49.4397 20.1931 48.8331C20.1931 48.2264 20.0492 47.7443 19.7614 47.3868ZM28.3204 48.7009L30.6911 51.5556H29.4679L27.419 49.0709H27.3887V51.5556H26.4343V49.0709H26.4041L24.3401 51.5556H23.1471L25.4989 48.7122L23.31 46.1067H24.4461L26.4041 48.4894H26.4343V46.1067H27.3887V48.4894H27.419L29.3807 46.1067H30.4979L28.3204 48.7009ZM34.9365 51.5556V47.6361H34.8873L32.2325 51.5556H31.2857V46.1067H32.259V50.0376H32.3082L34.9592 46.1067H35.906V51.5556H34.9365ZM38.042 49.1653V48.38H38.7691C39.0671 48.38 39.3082 48.3031 39.4925 48.1496C39.6768 47.9961 39.7689 47.7959 39.7689 47.5492C39.7689 47.305 39.6818 47.1125 39.5076 46.9715C39.336 46.828 39.0998 46.7562 38.7994 46.7562C38.4964 46.7562 38.2515 46.8305 38.0647 46.979C37.8779 47.1275 37.7744 47.3302 37.7542 47.587H36.8415C36.8667 47.0911 37.0573 46.6983 37.4133 46.4089C37.7693 46.1168 38.2402 45.9708 38.8259 45.9708C39.3839 45.9708 39.8384 46.108 40.1893 46.3824C40.5403 46.6543 40.7157 47.0067 40.7157 47.4397C40.7157 47.7443 40.6211 48.0124 40.4317 48.244C40.2423 48.4756 39.9962 48.6254 39.6932 48.6933V48.7236C40.0593 48.7664 40.3496 48.9086 40.5643 49.1503C40.7788 49.3919 40.8861 49.6965 40.8861 50.064C40.8861 50.5298 40.688 50.9175 40.2916 51.227C39.8977 51.5367 39.4028 51.6915 38.807 51.6915C38.1985 51.6915 37.7024 51.5417 37.3187 51.2422C36.9374 50.9426 36.7342 50.5461 36.7089 50.0527H37.6481C37.6683 50.307 37.7832 50.5096 37.9927 50.6606C38.2049 50.8092 38.4775 50.8834 38.8108 50.8834C39.1315 50.8834 39.3902 50.8029 39.5871 50.6418C39.7841 50.4806 39.8826 50.2692 39.8826 50.0074C39.8826 49.7431 39.7854 49.5367 39.5909 49.3881C39.399 49.2396 39.1315 49.1653 38.788 49.1653H38.042ZM46.2942 51.5556H45.3209V49.1918H42.6623V51.5556H41.6852V46.1067H42.6623V48.3723H45.3209V46.1067H46.2942V51.5556ZM50.9865 51.5556V47.6361H50.9373L48.2825 51.5556H47.3357V46.1067H48.309V50.0376H48.3582L51.0092 46.1067H51.956V51.5556H50.9865Z" fill="#313C48"/>
<path d="M9.72163 55.3687H9.27475C9.24825 55.2743 9.19835 55.1976 9.12519 55.1384C9.05196 55.0792 8.95914 55.0497 8.84681 55.0497C8.69783 55.0497 8.57916 55.1094 8.4908 55.229C8.40374 55.3473 8.36018 55.5078 8.36018 55.7105C8.36018 55.9156 8.40374 56.0773 8.4908 56.1957C8.57916 56.3127 8.69847 56.3713 8.84868 56.3713C8.96108 56.3713 9.05383 56.3436 9.12706 56.2882C9.20152 56.2328 9.25206 56.1547 9.27856 56.0541H9.72544C9.69642 56.2655 9.60296 56.4348 9.44519 56.562C9.28865 56.6878 9.08854 56.7507 8.84493 56.7507C8.55078 56.7507 8.31726 56.6576 8.1443 56.4713C7.97134 56.285 7.88486 56.0314 7.88486 55.7105C7.88486 55.3933 7.97134 55.1403 8.1443 54.9514C8.31726 54.7627 8.54949 54.6683 8.84112 54.6683C9.08602 54.6683 9.28677 54.7343 9.44332 54.8665C9.5998 54.9987 9.69261 55.166 9.72163 55.3687ZM11.5679 54.7098V55.0723H10.9506V56.7111H10.4829V55.0723H9.86557V54.7098H11.5679ZM12.9634 54.6758C13.2185 54.6758 13.421 54.7684 13.5713 54.9534C13.7215 55.1384 13.7966 55.3908 13.7966 55.7105C13.7966 56.0289 13.7222 56.2806 13.5732 56.4656C13.4242 56.6506 13.2235 56.7432 12.971 56.7432C12.8271 56.7432 12.7002 56.7111 12.5904 56.6469C12.4806 56.5814 12.3979 56.4921 12.3424 56.3788H12.3329V57.37H11.8614V54.7098H12.3215V55.0553H12.331C12.3891 54.937 12.473 54.8445 12.5829 54.7778C12.6927 54.7098 12.8195 54.6758 12.9634 54.6758ZM12.8195 56.358C12.9723 56.358 13.0928 56.3001 13.1812 56.1843C13.2696 56.0673 13.3137 55.9093 13.3137 55.7105C13.3137 55.5128 13.2689 55.3555 13.1793 55.2384C13.0909 55.1214 12.971 55.0629 12.8195 55.0629C12.6731 55.0629 12.5551 55.122 12.4654 55.2403C12.3758 55.3587 12.3303 55.5153 12.3291 55.7105C12.3303 55.9068 12.3758 56.0641 12.4654 56.1825C12.5551 56.2995 12.6731 56.358 12.8195 56.358ZM14.8741 56.3882C15.0092 56.3882 15.1228 56.3486 15.2149 56.2693C15.3083 56.1888 15.355 56.0887 15.355 55.9691V55.8162L14.8911 55.8445C14.7775 55.852 14.6892 55.8803 14.626 55.9294C14.5641 55.9773 14.5333 56.0409 14.5333 56.1201C14.5333 56.202 14.5641 56.2674 14.626 56.3165C14.6892 56.3643 14.7718 56.3882 14.8741 56.3882ZM14.7321 56.7432C14.5364 56.7432 14.3754 56.6872 14.2492 56.5752C14.1242 56.4631 14.0617 56.3177 14.0617 56.139C14.0617 55.9615 14.1274 55.8212 14.2586 55.718C14.3912 55.6148 14.5799 55.5556 14.8248 55.5405L15.355 55.5103V55.3668C15.355 55.2624 15.3216 55.1812 15.2547 55.1233C15.189 55.0654 15.0975 55.0364 14.9801 55.0364C14.8703 55.0364 14.7807 55.061 14.7112 55.11C14.6418 55.1591 14.5995 55.2258 14.5844 55.3102H14.1469C14.157 55.1201 14.2385 54.9659 14.3912 54.8476C14.5452 54.7281 14.7478 54.6683 14.9991 54.6683C15.2477 54.6683 15.4465 54.7287 15.5955 54.8495C15.7457 54.9703 15.8208 55.1314 15.8208 55.3328V56.7111H15.3664V56.392H15.357C15.3001 56.499 15.2143 56.5846 15.0994 56.6488C14.9845 56.7117 14.862 56.7432 14.7321 56.7432ZM17.0195 55.9936H17.01L16.5935 56.7111H16.0916L16.7392 55.7123L16.0973 54.7098H16.6275L17.0327 55.4122H17.0422L17.4418 54.7098H17.9587L17.313 55.6991L17.9511 56.7111H17.4361L17.0195 55.9936ZM19.7822 56.4732C19.6068 56.6582 19.3707 56.7507 19.074 56.7507C18.7774 56.7507 18.5413 56.6582 18.3658 56.4732C18.1904 56.2869 18.1026 56.0327 18.1026 55.7105C18.1026 55.3895 18.191 55.1359 18.3677 54.9496C18.5444 54.762 18.7799 54.6683 19.074 54.6683C19.3694 54.6683 19.6048 54.762 19.7803 54.9496C19.9571 55.1359 20.0454 55.3895 20.0454 55.7105C20.0454 56.0327 19.9577 56.2869 19.7822 56.4732ZM18.7142 56.2032C18.8026 56.3203 18.9226 56.3788 19.074 56.3788C19.2255 56.3788 19.3455 56.3203 19.4338 56.2032C19.5222 56.0862 19.5664 55.9219 19.5664 55.7105C19.5664 55.5003 19.5222 55.3366 19.4338 55.2195C19.3455 55.1013 19.2255 55.0421 19.074 55.0421C18.9238 55.0421 18.8039 55.1013 18.7142 55.2195C18.6259 55.3366 18.5817 55.5003 18.5817 55.7105C18.5817 55.9219 18.6259 56.0862 18.7142 56.2032ZM21.227 55.0288H20.8464V55.5273H21.191C21.4132 55.5273 21.5243 55.443 21.5243 55.2743C21.5243 55.1963 21.4984 55.1359 21.4466 55.0931C21.3962 55.0503 21.3229 55.0288 21.227 55.0288ZM21.2195 55.8256H20.8464V56.392H21.2573C21.3697 56.392 21.4555 56.3681 21.5148 56.3203C21.5742 56.2712 21.6038 56.2007 21.6038 56.1088C21.6038 55.92 21.4757 55.8256 21.2195 55.8256ZM20.3844 56.7111V54.7098H21.3368C21.5388 54.7098 21.6972 54.7551 21.8122 54.8458C21.927 54.9351 21.9845 55.0591 21.9845 55.2177C21.9845 55.3221 21.9503 55.4159 21.8822 55.499C21.8153 55.5808 21.7319 55.6305 21.6323 55.6481V55.6632C21.7648 55.6809 21.8715 55.7324 21.9523 55.8181C22.0331 55.9037 22.0735 56.0088 22.0735 56.1333C22.0735 56.3108 22.0085 56.4518 21.8784 56.5563C21.7497 56.6595 21.5742 56.7111 21.352 56.7111H20.3844ZM23.1565 56.3882C23.2916 56.3882 23.4053 56.3486 23.4974 56.2693C23.5908 56.1888 23.6376 56.0887 23.6376 55.9691V55.8162L23.1736 55.8445C23.06 55.852 22.9716 55.8803 22.9085 55.9294C22.8467 55.9773 22.8157 56.0409 22.8157 56.1201C22.8157 56.202 22.8467 56.2674 22.9085 56.3165C22.9716 56.3643 23.0543 56.3882 23.1565 56.3882ZM23.0145 56.7432C22.8189 56.7432 22.658 56.6872 22.5317 56.5752C22.4067 56.4631 22.3442 56.3177 22.3442 56.139C22.3442 55.9615 22.4099 55.8212 22.5412 55.718C22.6737 55.6148 22.8625 55.5556 23.1074 55.5405L23.6376 55.5103V55.3668C23.6376 55.2624 23.6041 55.1812 23.5372 55.1233C23.4716 55.0654 23.3801 55.0364 23.2626 55.0364C23.1528 55.0364 23.0632 55.061 22.9937 55.11C22.9243 55.1591 22.882 55.2258 22.8669 55.3102H22.4294C22.4396 55.1201 22.521 54.9659 22.6737 54.8476C22.8278 54.7281 23.0303 54.6683 23.2815 54.6683C23.5303 54.6683 23.7291 54.7287 23.8781 54.8495C24.0283 54.9703 24.1034 55.1314 24.1034 55.3328V56.7111H23.6489V56.392H23.6394C23.5826 56.499 23.4968 56.5846 23.3819 56.6488C23.267 56.7117 23.1446 56.7432 23.0145 56.7432ZM25.3096 55.6973H25.658V55.0685H25.3096C25.201 55.0685 25.1145 55.0975 25.0501 55.1553C24.9871 55.2133 24.9555 55.292 24.9555 55.3913C24.9555 55.4807 24.9877 55.5544 25.0521 55.6123C25.1164 55.6689 25.2023 55.6973 25.3096 55.6973ZM25.658 56.7111V56.0409H25.3891L24.9214 56.7111H24.395L24.9346 55.9672C24.7945 55.9244 24.6847 55.8533 24.6052 55.7538C24.5269 55.6532 24.4878 55.533 24.4878 55.3933C24.4878 55.1831 24.5585 55.0169 24.6998 54.8948C24.8425 54.7715 25.0337 54.7098 25.2736 54.7098H26.12V56.7111H25.658ZM28.237 55.6443L29.1271 56.7111H28.5495L27.8034 55.8162H27.7883V56.7111H27.3187V54.7098H27.7883V55.5443H27.8034L28.5381 54.7098H29.0872L28.237 55.6443ZM30.9089 56.4732C30.7334 56.6582 30.4974 56.7507 30.2007 56.7507C29.904 56.7507 29.668 56.6582 29.4925 56.4732C29.317 56.2869 29.2293 56.0327 29.2293 55.7105C29.2293 55.3895 29.3177 55.1359 29.4944 54.9496C29.6711 54.762 29.9065 54.6683 30.2007 54.6683C30.4961 54.6683 30.7315 54.762 30.907 54.9496C31.0837 55.1359 31.1721 55.3895 31.1721 55.7105C31.1721 56.0327 31.0844 56.2869 30.9089 56.4732ZM29.8409 56.2032C29.9293 56.3203 30.0492 56.3788 30.2007 56.3788C30.3522 56.3788 30.4721 56.3203 30.5605 56.2032C30.6488 56.0862 30.693 55.9219 30.693 55.7105C30.693 55.5003 30.6488 55.3366 30.5605 55.2195C30.4721 55.1013 30.3522 55.0421 30.2007 55.0421C30.0505 55.0421 29.9305 55.1013 29.8409 55.2195C29.7525 55.3366 29.7084 55.5003 29.7084 55.7105C29.7084 55.9219 29.7525 56.0862 29.8409 56.2032ZM31.9598 56.7111H31.511V54.7098H32.1113L32.704 56.1069H32.7192L33.3119 54.7098H33.9026V56.7111H33.4539V55.3423H33.4387L32.8725 56.6185H32.5393L31.9731 55.3423H31.9598V56.7111ZM35.6239 56.7111V55.0723H34.7945V56.7111H34.3249V54.7098H36.0954V56.7111H35.6239ZM37.2523 56.3882C37.3874 56.3882 37.5011 56.3486 37.5932 56.2693C37.6866 56.1888 37.7334 56.0887 37.7334 55.9691V55.8162L37.2694 55.8445C37.1558 55.852 37.0674 55.8803 37.0043 55.9294C36.9424 55.9773 36.9115 56.0409 36.9115 56.1201C36.9115 56.202 36.9424 56.2674 37.0043 56.3165C37.0674 56.3643 37.1501 56.3882 37.2523 56.3882ZM37.1103 56.7432C36.9147 56.7432 36.7538 56.6872 36.6275 56.5752C36.5025 56.4631 36.44 56.3177 36.44 56.139C36.44 55.9615 36.5057 55.8212 36.637 55.718C36.7695 55.6148 36.9583 55.5556 37.2032 55.5405L37.7334 55.5103V55.3668C37.7334 55.2624 37.6999 55.1812 37.633 55.1233C37.5673 55.0654 37.4758 55.0364 37.3584 55.0364C37.2486 55.0364 37.159 55.061 37.0895 55.11C37.0201 55.1591 36.9778 55.2258 36.9627 55.3102H36.5252C36.5354 55.1201 36.6167 54.9659 36.7695 54.8476C36.9236 54.7281 37.1261 54.6683 37.3774 54.6683C37.6261 54.6683 37.8249 54.7287 37.9739 54.8495C38.1241 54.9703 38.1992 55.1314 38.1992 55.3328V56.7111H37.7447V56.392H37.7352C37.6784 56.499 37.5926 56.5846 37.4777 56.6488C37.3628 56.7117 37.2404 56.7432 37.1103 56.7432ZM39.9299 56.7111V55.8615H39.0816V56.7111H38.612V54.7098H39.0816V55.499H39.9299V54.7098H40.3995V56.7111H39.9299ZM41.2857 56.7111H40.8236V54.7098H41.2857V56.0465H41.3008L42.1738 54.7098H42.6358V56.7111H42.1738V55.3649H42.1587L41.2857 56.7111ZM43.8515 55.6973H44.1999V55.0685H43.8515C43.7429 55.0685 43.6564 55.0975 43.592 55.1553C43.529 55.2133 43.4974 55.292 43.4974 55.3913C43.4974 55.4807 43.5296 55.5544 43.594 55.6123C43.6584 55.6689 43.7442 55.6973 43.8515 55.6973ZM44.1999 56.7111V56.0409H43.9311L43.4633 56.7111H42.9369L43.4766 55.9672C43.3364 55.9244 43.2266 55.8533 43.1471 55.7538C43.0688 55.6532 43.0297 55.533 43.0297 55.3933C43.0297 55.1831 43.1004 55.0169 43.2417 54.8948C43.3844 54.7715 43.5756 54.7098 43.8155 54.7098H44.6619V56.7111H44.1999Z" fill="#A89060"/>
</svg>
