<svg width="58" height="58" viewBox="0 0 58 58" fill="none" xmlns="http://www.w3.org/2000/svg">
<g clip-path="url(#clip0)">
<path d="M45.8383 35.9291C44.6509 34.6927 43.2187 34.0317 41.7008 34.0317C40.1951 34.0317 38.7506 34.6805 37.5142 35.9168L33.646 39.7728C33.3277 39.6015 33.0095 39.4423 32.7034 39.2832C32.2627 39.0628 31.8465 38.8547 31.4915 38.6344C27.8681 36.333 24.5752 33.3339 21.4169 29.4534C19.8868 27.5193 18.8585 25.8912 18.1118 24.2386C19.1156 23.3205 20.0459 22.3657 20.9518 21.4476C21.2945 21.1049 21.6373 20.7499 21.98 20.4071C24.5507 17.8364 24.5507 14.5068 21.98 11.9361L18.6382 8.59426C18.2587 8.21478 17.867 7.82305 17.4997 7.43133C16.7653 6.67237 15.9941 5.88893 15.1984 5.15445C14.011 3.97929 12.591 3.35498 11.0975 3.35498C9.60409 3.35498 8.15962 3.97929 6.93549 5.15445C6.92325 5.16669 6.92325 5.16669 6.91101 5.17893L2.74897 9.3777C1.18208 10.9446 0.288468 12.8542 0.0926074 15.0699C-0.201184 18.6444 0.851568 21.974 1.65949 24.1529C3.64258 29.5024 6.60498 34.4601 11.0241 39.7728C16.3858 46.175 22.8369 51.2307 30.2062 54.7929C33.0217 56.1272 36.7798 57.7063 40.9785 57.9757C41.2356 57.9879 41.5049 58.0001 41.7497 58.0001C44.5775 58.0001 46.9523 56.9841 48.813 54.9643C48.8252 54.9398 48.8497 54.9276 48.8619 54.9031C49.4985 54.1319 50.233 53.4341 51.0042 52.6874C51.5305 52.1855 52.0691 51.6591 52.5955 51.1083C53.8074 49.8474 54.444 48.3785 54.444 46.8728C54.444 45.3549 53.7952 43.8982 52.5588 42.674L45.8383 35.9291ZM50.2207 48.8192C50.2085 48.8192 50.2085 48.8314 50.2207 48.8192C49.7433 49.3333 49.2537 49.7985 48.7273 50.3126C47.9316 51.0716 47.1237 51.8672 46.3647 52.7609C45.1283 54.0829 43.6716 54.7072 41.762 54.7072C41.5784 54.7072 41.3825 54.7072 41.1989 54.695C37.5632 54.4624 34.1846 53.0424 31.6507 51.8305C24.7221 48.4764 18.6382 43.7145 13.5825 37.6796C9.40823 32.6484 6.61722 27.9967 4.76878 23.0023C3.63034 19.9542 3.21414 17.5794 3.39776 15.3392C3.52017 13.907 4.07103 12.7196 5.08706 11.7035L9.26134 7.52926C9.86116 6.96616 10.4977 6.66013 11.122 6.66013C11.8932 6.66013 12.5175 7.1253 12.9092 7.51702C12.9215 7.52926 12.9337 7.5415 12.946 7.55375C13.6927 8.2515 14.4027 8.97374 15.1494 9.74494C15.5289 10.1367 15.9206 10.5284 16.3123 10.9323L19.6542 14.2742C20.9518 15.5718 20.9518 16.7714 19.6542 18.069C19.2992 18.424 18.9564 18.779 18.6014 19.1218C17.5732 20.1745 16.5939 21.1538 15.5289 22.1086C15.5044 22.1331 15.4799 22.1454 15.4677 22.1699C14.4149 23.2226 14.6108 24.2509 14.8311 24.9486C14.8434 24.9854 14.8556 25.0221 14.8679 25.0588C15.737 27.1643 16.9611 29.1474 18.8218 31.51L18.834 31.5222C22.2126 35.6842 25.7748 38.9282 29.7043 41.4132C30.2062 41.7314 30.7203 41.9885 31.21 42.2333C31.6507 42.4537 32.0669 42.6618 32.4219 42.8821C32.4708 42.9066 32.5198 42.9433 32.5688 42.9678C32.985 43.1759 33.3767 43.2739 33.7807 43.2739C34.7967 43.2739 35.4332 42.6373 35.6413 42.4292L39.8279 38.2427C40.2441 37.8265 40.9051 37.3246 41.6763 37.3246C42.4352 37.3246 43.0596 37.802 43.439 38.2182C43.4513 38.2304 43.4513 38.2304 43.4635 38.2427L50.2085 44.9876C51.4693 46.2362 51.4693 47.5216 50.2207 48.8192Z" fill="black"/>
<path d="M31.3446 13.7969C34.5518 14.3355 37.4653 15.8534 39.7911 18.1792C42.117 20.5051 43.6226 23.4185 44.1735 26.6257C44.3082 27.4337 45.0059 27.9968 45.8016 27.9968C45.8995 27.9968 45.9852 27.9845 46.0831 27.9723C46.989 27.8254 47.5888 26.9685 47.4419 26.0626C46.7809 22.1822 44.9447 18.6444 42.1414 15.8412C39.3382 13.0379 35.8005 11.2017 31.92 10.5407C31.0141 10.3938 30.1695 10.9936 30.0103 11.8872C29.8512 12.7808 30.4388 13.65 31.3446 13.7969Z" fill="#DDD0A4"/>
<path d="M57.9327 25.585C56.8432 19.1951 53.8319 13.3804 49.2047 8.75324C44.5774 4.12603 38.7628 1.11467 32.3729 0.0251944C31.4793 -0.133942 30.6346 0.478122 30.4755 1.37174C30.3286 2.27759 30.9284 3.12224 31.8343 3.28138C37.5387 4.24844 42.7412 6.95377 46.8788 11.0791C51.0164 15.2166 53.7095 20.4192 54.6765 26.1236C54.8112 26.9316 55.5089 27.4947 56.3046 27.4947C56.4025 27.4947 56.4882 27.4824 56.5862 27.4702C57.4798 27.3355 58.0918 26.4786 57.9327 25.585Z" fill="#DDD0A4"/>
</g>
<defs>
<clipPath id="clip0">
<rect width="58" height="58" fill="white"/>
</clipPath>
</defs>
</svg>
