<svg width="157" height="105" viewBox="0 0 157 105" fill="none" xmlns="http://www.w3.org/2000/svg">
<g filter="url(#filter0_d)">
<path d="M77.8844 16C83.3844 16 84.8844 18 89.3844 27.5C93.8844 37 96.8844 57 131.884 57C135.814 57 139 60.1858 139 64.1156V80C139 82.4853 136.985 84.5 134.5 84.5H55H23C20.2386 84.5 18 82.2614 18 79.5V62.8844C18 59.6345 20.6345 57 23.8844 57C59.3844 57 61.8844 37 66.3844 27.5C70.8844 18 72.3844 16 77.8844 16Z" fill="white"/>
</g>
<defs>
<filter id="filter0_d" x="0" y="0" width="157" height="104.5" filterUnits="userSpaceOnUse" color-interpolation-filters="sRGB">
<feFlood flood-opacity="0" result="BackgroundImageFix"/>
<feColorMatrix in="SourceAlpha" type="matrix" values="0 0 0 0 0 0 0 0 0 0 0 0 0 0 0 0 0 0 127 0" result="hardAlpha"/>
<feOffset dy="2"/>
<feGaussianBlur stdDeviation="9"/>
<feColorMatrix type="matrix" values="0 0 0 0 0.160784 0 0 0 0 0.160784 0 0 0 0 0.160784 0 0 0 0.1 0"/>
<feBlend mode="normal" in2="BackgroundImageFix" result="effect1_dropShadow"/>
<feBlend mode="normal" in="SourceGraphic" in2="effect1_dropShadow" result="shape"/>
</filter>
</defs>
</svg>
